PathFileType  4	(X/Y/Z) C:\Users\antoi\Documents\MyRepositories\mobilecap\ResultsAnalysis
DataRate	CameraRate	NumFrames	NumMarkers	Units	OrigDataRate	OrigDataStartFrame	OrigNumFrames
100.0	100.0	4	51	mm	100.0	57	151
Frame#	Time	r_knee			r_shank_antsup			r_ankle			r_calc			r_5meta			r_toe			L_knee			L_shank_antsup			L_ankle			L_calc			L_5meta			L_toe			r_sh2			r_sh3			r_sh4			L_sh2			L_sh3			r_thigh1			r_thigh2			r_thigh3			r_thigh4			r_thigh5			L_thigh1			L_thigh2			L_thigh3			L_thigh4			r.ASIS			r.PSIS			L.ASIS			L.PSIS			C7			R_Shoulder			L_Shoulder			R_Sternum			L_Sternum			R_humerus			R_elbow_med			R_elbow_lat			R_forearm			R_wrist_radius			R_wrist_ulna			L_humerus			L_elbow_med			L_elbow_lat			L_forearm			L_wrist_radius			L_wrist_ulna			R_HJC			L_HJC			R_HJC_reg			L_HJC_reg			
		X1	Y1	Z1	X2	Y2	Z2	X3	Y3	Z3	X4	Y4	Z4	X5	Y5	Z5	X6	Y6	Z6	X7	Y7	Z7	X8	Y8	Z8	X9	Y9	Z9	X10	Y10	Z10	X11	Y11	Z11	X12	Y12	Z12	X13	Y13	Z13	X14	Y14	Z14	X15	Y15	Z15	X16	Y16	Z16	X17	Y17	Z17	X18	Y18	Z18	X19	Y19	Z19	X20	Y20	Z20	X21	Y21	Z21	X22	Y22	Z22	X23	Y23	Z23	X24	Y24	Z24	X25	Y25	Z25	X26	Y26	Z26	X27	Y27	Z27	X28	Y28	Z28	X29	Y29	Z29	X30	Y30	Z30	X31	Y31	Z31	X32	Y32	Z32	X33	Y33	Z33	X34	Y34	Z34	X35	Y35	Z35	X36	Y36	Z36	X37	Y37	Z37	X38	Y38	Z38	X39	Y39	Z39	X40	Y40	Z40	X41	Y41	Z41	X42	Y42	Z42	X43	Y43	Z43	X44	Y44	Z44	X45	Y45	Z45	X46	Y46	Z46	X47	Y47	Z47	X48	Y48	Z48	X49	Y49	Z49	X50	Y50	Z50	X51	Y51	Z51	

57	0.56000000	390.81384	583.41185	-50.48054	359.97951	431.33736	-67.79759	163.96325	118.29327	-109.56072	107.07250	106.63337	-175.87568	288.16513	35.85134	-82.27256	334.08116	58.98125	-128.76935	687.38175	594.95400	-301.73328	795.24858	428.23493	-270.08064	821.81197	115.08772	-241.02074	784.77453	71.01396	-168.33437	981.05565	86.03366	-279.29536	1008.86454	139.91694	-231.01297	315.03445	329.04085	-84.81809	295.66697	450.68013	-28.33150	247.67860	347.80608	-38.06977	723.52389	407.56196	-318.77822	752.78961	295.27352	-292.09366	502.01588	857.98579	1.00027	494.38858	746.73050	-9.44020	427.83463	730.50371	-5.13116	389.27260	871.35783	-19.68585	377.31231	754.46996	-24.22413	640.52535	887.14823	-336.75832	684.26104	761.07854	-318.94708	537.62277	854.94858	-347.08742	584.37078	725.85775	-335.04104	596.17488	1138.17384	-37.89189	403.34308	1167.40349	-119.75320	571.68704	1140.03865	-312.54311	394.97487	1165.18385	-211.91983	450.60383	1655.48191	-141.22362	523.51884	1598.47520	26.23730	506.08342	1635.03913	-323.48243	593.19477	1567.66489	-124.25407	593.01973	1572.97192	-181.02162	504.61716	1327.93193	91.88037	414.07629	1213.35703	55.93383	425.17984	1235.49721	128.02470	557.32225	1065.73805	146.20678	611.61767	987.78086	142.55378	583.49156	976.54747	164.17065	499.47140	1341.29659	-394.61342	408.79577	1266.47091	-345.68178	427.34103	1264.93709	-420.97968	518.44748	1080.65931	-454.90486	551.68254	1007.06995	-449.81589	525.70603	1007.62422	-472.82531	516.95074	1041.89628	-74.32429	497.67831	1045.59721	-270.81992	523.49457	1058.44257	-69.05731	507.04407	1054.07835	-250.25440	
58	0.57000000	401.40794	582.20429	-49.94886	368.14114	430.48103	-67.29485	166.04596	121.23335	-109.13063	108.92439	110.83585	-175.45431	288.58740	35.98405	-82.33077	334.87952	58.54271	-128.83943	699.75412	593.04870	-299.52982	805.53107	424.68551	-266.51809	826.63851	111.60007	-237.24041	788.14113	68.42324	-164.93788	985.17185	80.58977	-274.60462	1013.93493	133.10614	-225.33997	321.19067	329.10476	-84.27910	304.11617	451.11821	-28.11040	254.14024	349.31708	-37.72483	733.85471	404.91536	-315.85310	761.03793	292.31738	-288.79254	513.28010	856.67658	1.54518	505.43161	745.42185	-8.63663	439.15633	729.36722	-5.00978	400.82392	870.32560	-20.06371	388.55367	753.46916	-24.43941	654.07800	885.26783	-335.86689	697.28487	759.12420	-317.21993	551.04090	853.44684	-345.95033	597.34534	724.26530	-333.40196	608.67138	1136.75345	-37.42212	416.10386	1165.82992	-120.30115	585.23142	1138.34335	-312.40364	408.06043	1163.54878	-212.46477	462.59571	1653.94078	-143.04966	535.45318	1597.53339	24.71297	518.38172	1632.96336	-325.15645	605.31601	1566.37851	-125.53859	605.23863	1571.52830	-182.34729	515.78336	1327.24913	90.97051	425.01708	1212.87179	55.03780	436.10020	1235.11748	127.05689	566.82647	1064.22082	145.75243	620.46440	985.69613	142.33416	592.29174	974.84932	163.95482	511.71254	1339.00158	-395.29900	421.35299	1264.24921	-345.79251	439.57770	1262.51922	-421.11861	529.86029	1077.92293	-455.13925	562.78720	1004.14720	-450.09108	536.73987	1004.83395	-472.97187	529.56284	1040.41726	-74.23398	511.09860	1043.92115	-270.81015	536.16667	1056.85739	-68.82972	520.33673	1052.36721	-250.23679	
59	0.58000000	412.66117	580.95099	-49.28404	376.84760	429.62129	-66.64187	168.43868	124.58557	-108.52734	111.09655	115.58319	-174.91108	289.06748	36.13265	-82.36413	335.66321	58.08664	-129.06250	711.96589	591.20100	-297.44150	815.72668	421.31915	-263.03096	831.57874	108.48759	-233.97604	791.28366	66.63497	-162.09442	988.99656	74.74388	-270.37788	1019.04040	125.57594	-220.03225	327.79343	329.28870	-83.57797	313.14059	451.66897	-27.78893	261.06157	351.04751	-37.28207	744.31727	402.50156	-313.07483	769.50408	289.62732	-285.76869	524.89415	855.43672	2.16226	516.92415	744.15656	-7.70246	451.01019	728.18209	-4.82052	412.73260	869.22710	-20.46594	400.25386	752.40304	-24.62152	667.71167	883.39252	-334.97533	710.22740	757.13534	-315.52329	564.51217	852.15703	-344.70904	610.21476	722.80935	-331.84734	621.43526	1135.45772	-36.90113	429.06661	1164.32882	-120.85952	598.99291	1136.73653	-312.29792	421.33150	1162.03614	-213.03480	474.64105	1652.51366	-145.02070	547.39539	1596.70078	23.09237	530.81208	1630.94056	-326.94723	617.51681	1565.21764	-126.89970	617.53891	1570.20015	-183.77159	526.97117	1326.64798	89.96757	435.89448	1212.44877	54.06975	446.97352	1234.87997	126.02251	576.19930	1062.77029	145.26145	629.21501	983.60295	142.01024	600.98553	973.22639	163.73765	524.02702	1336.76911	-396.09541	433.98536	1262.10196	-345.95837	451.84849	1260.17752	-421.34069	541.30775	1075.22502	-455.38793	573.90955	1001.26802	-450.36342	547.80532	1002.05249	-473.12878	542.40468	1039.04961	-74.14162	524.74310	1042.34040	-270.79576	549.13074	1055.25875	-68.59925	533.88744	1050.74022	-250.27486	
60	0.59000000	424.67839	579.66750	-48.46447	386.20496	428.78280	-65.82435	171.24777	128.36788	-107.76957	113.67898	120.96107	-174.21903	289.60946	36.31481	-82.35996	336.42246	57.61294	-129.43938	724.05642	589.54853	-295.53948	825.93440	418.27119	-259.69827	836.79474	105.84460	-231.31908	794.42952	65.73875	-159.87783	992.68456	68.58254	-266.77488	1024.28437	117.51127	-215.36707	334.93393	329.62191	-82.69797	322.82203	452.37022	-27.34403	268.53031	353.02923	-36.74042	755.07233	400.48061	-310.54279	778.40520	287.35476	-283.15797	536.88620	854.28989	2.82415	528.91407	742.95788	-6.65217	463.38943	726.96595	-4.53062	425.02969	868.05554	-20.90914	412.46195	751.25889	-24.76107	681.32656	881.63884	-334.11965	723.05600	755.24962	-313.90272	577.97535	851.15612	-343.42538	622.95117	721.54692	-330.46164	634.44991	1134.31641	-36.36876	442.20265	1162.94624	-121.38647	612.88352	1135.28271	-312.23564	434.72598	1160.71594	-213.59310	486.74060	1651.25587	-147.11924	559.32285	1596.02079	21.39361	543.35105	1629.00673	-328.85190	629.78685	1564.22876	-128.33324	629.91115	1569.03232	-185.28470	538.16145	1326.16337	88.86000	446.70057	1212.10295	52.99777	457.79566	1234.79719	124.91614	585.42695	1061.42202	144.73585	637.82124	981.56631	141.55510	609.52794	971.70462	163.50577	536.43307	1334.61997	-396.99859	446.69939	1260.04869	-346.19517	464.18473	1257.93237	-421.65610	552.80555	1072.58350	-455.64888	585.05608	998.45141	-450.62522	558.90776	999.28882	-473.29629	555.44911	1037.83102	-74.06217	538.52621	1040.92072	-270.78641	562.37545	1053.67171	-68.39922	547.62136	1049.27052	-250.38118	
